<?xml version="1.0" standalone="no"?>
<!DOCTYPE svg PUBLIC "-//W3C//DTD SVG 20010904//EN"
 "http://www.w3.org/TR/2001/REC-SVG-20010904/DTD/svg10.dtd">
<svg version="1.0" xmlns="http://www.w3.org/2000/svg"
 width="450.000000pt" height="368.000000pt" viewBox="0 0 500 320"
 preserveAspectRatio="xMidYMid meet">
<circle fill="#FFFFFF" cx="250" cy="250" r="250"/>
<g transform="translate(25.000000,360.000000) scale(0.100000,-0.100000)"
fill="#26348b" stroke="none">
<path d="M2140 3603 c-567 -56 -1047 -391 -1290 -898 -97 -204 -139 -375 -147
-611 -7 -190 9 -306 64 -479 34 -106 134 -326 187 -411 l25 -41 -67 -7 c-37
-3 -257 -6 -489 -6 -416 0 -423 0 -423 -20 0 -20 7 -20 530 -20 292 0 530 2
530 4 0 2 -28 51 -62 108 -266 447 -320 852 -172 1297 146 440 505 804 943
955 187 65 281 80 501 80 215 1 298 -11 470 -66 234 -74 426 -192 611 -377
182 -183 303 -377 378 -608 55 -167 66 -248 66 -468 0 -176 -3 -211 -24 -295
-49 -197 -128 -380 -237 -548 l-54 -82 510 0 c503 0 510 0 510 20 0 20 -7 20
-407 22 -225 0 -412 2 -418 3 -5 2 -31 3 -57 4 l-47 1 54 91 c65 109 134 270
169 393 76 264 73 562 -9 835 -182 610 -713 1051 -1347 1120 -92 10 -220 12
-298 4z"/>
<path d="M1260 2566 c-20 -12 -51 -79 -169 -373 -79 -197 -142 -368 -140 -378
2 -11 21 -28 41 -38 32 -16 44 -17 72 -7 32 10 38 19 67 96 l32 84 155 -2 155
-3 26 -71 c34 -93 44 -104 95 -104 49 0 86 23 86 53 0 12 -61 177 -136 367
-94 239 -143 352 -160 368 -29 25 -85 29 -124 8z m117 -346 l51 -150 -109 0
c-60 0 -109 3 -109 7 0 16 103 293 109 293 3 0 29 -68 58 -150z"/>
<path d="M2723 2562 c-93 -33 -158 -97 -187 -185 -22 -65 -23 -331 -1 -404 44
-149 200 -232 382 -204 125 19 211 88 185 147 -15 32 -58 32 -137 -1 -76 -31
-137 -32 -195 -2 -81 41 -85 54 -85 250 0 201 7 225 70 262 57 34 134 34 207
0 69 -32 113 -33 133 -1 28 42 -10 97 -90 131 -62 27 -217 30 -282 7z"/>
<path d="M3262 2560 c-22 -21 -22 -23 -22 -381 0 -216 4 -368 10 -379 24 -44
126 -45 150 0 6 11 10 159 10 378 l0 359 -23 21 c-31 29 -95 30 -125 2z"/>
<path d="M1866 2549 l-26 -20 0 -363 c0 -338 1 -364 18 -379 28 -26 75 -31
111 -13 l31 17 0 154 0 155 120 0 c129 0 167 10 176 46 17 66 -21 84 -176 84
l-120 0 0 105 0 105 170 0 c168 0 171 0 195 25 14 13 25 31 25 40 0 9 -11 27
-25 40 l-24 25 -224 0 c-212 0 -226 -1 -251 -21z"/>
<path fill="#02a0e4" d="M149 756 c-96 -65 -110 -254 -26 -344 63 -68 139 -70 210 -4 53 50
26 91 -29 43 -86 -76 -194 -8 -194 124 0 121 113 194 188 122 30 -28 47 -34
57 -17 12 19 -6 50 -43 75 -50 34 -114 34 -163 1z"/>
<path fill="#02a0e4" d="M622 771 c-9 -6 -12 -53 -10 -202 3 -175 5 -194 21 -197 15 -3 17 8
17 122 0 69 4 126 9 126 4 0 32 -56 61 -125 41 -97 57 -125 72 -125 17 0 18
10 16 203 -3 172 -5 202 -18 202 -12 0 -15 -22 -18 -127 -1 -74 -7 -128 -12
-128 -6 0 -10 5 -10 11 0 17 -90 222 -103 236 -7 7 -18 9 -25 4z"/>
<path fill="#02a0e4" d="M2499 757 c-57 -38 -84 -99 -84 -187 1 -124 56 -199 154 -207 92 -8
160 68 169 187 6 88 -14 145 -69 194 -33 31 -46 36 -88 36 -34 0 -58 -7 -82
-23z m128 -47 c18 -10 41 -37 53 -59 69 -136 -62 -296 -169 -206 -81 69 -74
213 12 265 40 25 64 25 104 0z"/>
<path fill="#02a0e4" d="M3014 767 c-2 -7 -3 -98 -2 -202 3 -172 5 -190 21 -193 15 -3 17 7
17 97 0 56 3 101 8 101 4 0 18 -44 32 -97 21 -81 29 -98 45 -98 15 0 23 17 44
98 14 53 29 97 33 97 5 0 8 -45 8 -101 0 -90 2 -100 18 -97 15 3 17 22 20 197
2 192 -3 230 -29 204 -6 -6 -28 -70 -48 -142 -21 -73 -41 -133 -45 -134 -5 -1
-25 57 -45 129 -21 71 -41 135 -45 142 -9 16 -25 15 -32 -1z"/>
<path fill="#02a0e4" d="M3403 768 c-15 -20 -114 -378 -108 -389 15 -24 35 -6 50 46 l16 55
54 0 54 0 16 -55 c15 -52 35 -69 50 -45 8 13 -93 371 -109 388 -10 11 -15 11
-23 0z m31 -150 c3 -18 9 -45 12 -60 6 -27 4 -28 -30 -28 -41 0 -41 -1 -21 68
18 60 30 66 39 20z"/>
<path fill="#02a0e4" d="M3752 771 c-9 -6 -12 -57 -10 -202 3 -175 5 -194 21 -197 16 -3 17
11 17 197 0 110 -4 202 -8 205 -4 2 -13 1 -20 -3z"/>
<path fill="#02a0e4" d="M3934 770 c-32 -13 -82 -76 -93 -117 -43 -153 43 -304 165 -290 54 6
99 38 125 89 56 110 21 265 -71 313 -31 16 -92 19 -126 5z m113 -60 c44 -27
67 -74 67 -140 1 -161 -169 -209 -230 -65 -30 72 -3 168 58 205 41 25 64 25
105 0z"/>
<path fill="#02a0e4" d="M4211 767 c-8 -10 -11 -69 -9 -203 3 -181 4 -189 23 -189 19 0 20 7
20 123 0 67 4 121 8 119 4 -1 27 -48 51 -103 57 -132 64 -144 82 -144 12 0 14
29 12 203 -3 172 -5 202 -18 202 -12 0 -16 -23 -20 -130 -4 -108 -7 -126 -16
-105 -7 14 -31 68 -54 120 -48 110 -61 128 -79 107z"/>
<path fill="#02a0e4" d="M404 757 c-2 -7 -3 -96 -2 -197 l3 -185 83 -3 c82 -3 82 -3 82 23 0
24 -2 25 -60 25 l-60 0 0 70 0 69 58 3 c49 3 57 6 57 23 0 17 -8 20 -57 23
l-58 3 0 54 0 55 60 0 c57 0 60 1 60 25 0 25 -1 25 -80 25 -56 0 -82 -4 -86
-13z"/>
<path fill="#02a0e4" d="M850 745 c0 -22 4 -25 35 -25 l35 0 2 -172 c3 -165 4 -173 23 -173
19 0 20 8 23 173 l2 172 35 0 c31 0 35 3 35 25 0 25 0 25 -95 25 -95 0 -95 0
-95 -25z"/>
<path fill="#02a0e4" d="M1080 570 c0 -192 1 -200 20 -200 17 0 19 8 22 77 4 105 19 106 65 4
34 -77 57 -98 69 -67 3 7 -9 44 -26 82 l-31 69 25 18 c53 38 58 130 10 187
-24 28 -31 30 -90 30 l-64 0 0 -200z m118 134 c16 -11 22 -25 22 -54 0 -45
-26 -70 -72 -70 -28 0 -28 0 -28 70 0 70 0 70 28 70 15 0 38 -7 50 -16z"/>
<path fill="#02a0e4" d="M1304 757 c-2 -7 -3 -96 -2 -197 l3 -185 83 -3 c51 -2 83 1 84 8 4
33 1 35 -57 40 l-60 5 -3 68 -3 67 61 0 c57 0 60 1 60 25 0 24 -3 25 -60 25
l-60 0 0 55 0 55 60 0 c57 0 60 1 60 25 0 25 -1 25 -80 25 -56 0 -82 -4 -86
-13z"/>
<path fill="#02a0e4" d="M1620 571 l0 -201 56 0 c88 0 145 42 169 124 28 94 14 167 -45 229
-36 40 -41 41 -109 45 l-71 4 0 -201z m127 129 c42 -25 67 -74 67 -130 0 -80
-45 -135 -115 -142 l-34 -3 -3 148 -3 147 28 0 c16 0 42 -9 60 -20z"/>
<path fill="#02a0e4" d="M1904 757 c-2 -7 -3 -96 -2 -197 l3 -185 83 -3 c82 -3 82 -3 82 22 0
24 -3 25 -62 28 l-63 3 0 65 0 65 60 5 c52 4 60 8 60 25 0 17 -8 21 -60 25
l-60 5 0 50 0 50 63 3 c58 3 62 4 62 27 0 24 -2 25 -80 25 -56 0 -82 -4 -86
-13z"/>
<path fill="#02a0e4" d="M2214 757 c-2 -7 -3 -96 -2 -197 3 -177 4 -185 23 -185 18 0 20 8 23
93 l3 92 59 0 c57 0 60 1 60 25 0 24 -3 25 -60 25 l-60 0 0 55 0 55 60 0 c57
0 60 1 60 25 0 25 -1 25 -80 25 -56 0 -82 -4 -86 -13z"/>
<path fill="#02a0e4" d="M2790 569 c0 -186 1 -200 18 -197 14 3 17 16 20 81 4 102 23 101 67
-3 30 -70 54 -95 69 -71 4 6 -7 43 -24 83 -30 71 -31 73 -12 88 43 34 56 114
27 170 -20 40 -43 50 -109 50 l-56 0 0 -201z m120 131 c43 -43 11 -120 -50
-120 l-30 0 0 70 0 70 30 0 c17 0 39 -9 50 -20z"/>
<path fill="#02a0e4" d="M3510 745 c0 -23 4 -25 40 -25 l40 0 0 -175 c0 -168 1 -175 20 -175
19 0 20 7 20 174 l0 175 38 3 c29 2 37 7 37 23 0 18 -8 20 -97 23 l-98 3 0
-26z"/>
<path d="M10 35 l0 -35 2245 0 2245 0 0 35 0 35 -2245 0 -2245 0 0 -35z"/>
</g>
</svg>
